<?xml version="1.0" encoding="iso-8859-1"?>
<!-- Generator: Adobe Illustrator 21.1.0, SVG Export Plug-In . SVG Version: 6.00 Build 0)  -->
<svg version="1.1" id="Layer_1" xmlns="http://www.w3.org/2000/svg" xmlns:xlink="http://www.w3.org/1999/xlink" x="0px" y="0px"
	 viewBox="0 0 300 300" style="enable-background:new 0 0 300 300;" xml:space="preserve">
<g>
	<path style="fill:none;stroke:#172E53;stroke-width:2;stroke-miterlimit:10;" d="M193.85,290h-86.778
		c-16.864,0-30.533-13.67-30.533-30.533V40.533C76.539,23.67,90.209,10,107.072,10h86.778c16.864,0,30.533,13.67,30.533,30.533
		v218.933C224.384,276.33,210.714,290,193.85,290z"/>

		<rect x="87.507" y="47.38" style="fill:none;stroke:#172E53;stroke-width:2;stroke-miterlimit:10;" width="125.911" height="205.241"/>
	<path style="fill:none;stroke:#172E53;stroke-width:2;stroke-miterlimit:10;" d="M150.461,280.197L150.461,280.197
		c-4.74,0-8.583-3.843-8.583-8.583v-1.248c0-4.74,3.843-8.583,8.583-8.583l0,0c4.74,0,8.583,3.843,8.583,8.583v1.248
		C159.044,276.355,155.201,280.197,150.461,280.197z"/>
	<path style="fill:none;stroke:#172E53;stroke-width:2;stroke-miterlimit:10;" d="M164.415,34.782h-27.909
		c-1.426,0-2.582-1.24-2.582-2.769l0,0c0-1.529,1.156-2.769,2.582-2.769h27.909c1.426,0,2.582,1.24,2.582,2.769l0,0
		C166.997,33.542,165.841,34.782,164.415,34.782z"/>
</g>
<g>
	<g>
		<g>
			<path style="stroke:#172E53;" d="M93.434,121.032c-0.439,0-0.834-0.311-0.923-0.758c-0.1-0.51,0.23-1.005,0.74-1.105
				l51.109-10.103c0.513-0.097,1.005,0.23,1.105,0.74c0.1,0.51-0.23,1.005-0.74,1.105l-51.109,10.103
				C93.555,121.026,93.494,121.032,93.434,121.032z"/>
		</g>
		<g>
			<path style="stroke:#172E53;" d="M93.557,120.756c-0.238,0-0.477-0.09-0.659-0.27c-0.37-0.363-0.375-0.96-0.012-1.33
				c1.357-1.38,2.728-2.84,4.054-4.251c5.429-5.779,11.042-11.755,18.1-15.033c4.949-2.299,17.778-6.58,30.022,3.286
				c0.405,0.326,0.469,0.919,0.141,1.324c-0.324,0.405-0.918,0.469-1.324,0.141c-11.42-9.201-23.417-5.194-28.047-3.044
				c-6.728,3.125-12.214,8.966-17.521,14.615c-1.334,1.419-2.712,2.888-4.085,4.283C94.045,120.661,93.8,120.756,93.557,120.756z"/>
		</g>
	</g>
	<g>
		<g>
			<path style="stroke:#172E53;" d="M207.489,119.893c-0.058,0-0.115-0.005-0.173-0.016l-51.41-9.496
				c-0.511-0.094-0.849-0.585-0.755-1.097s0.587-0.85,1.095-0.755l51.41,9.496c0.511,0.094,0.849,0.585,0.755,1.097
				C208.329,119.575,207.933,119.893,207.489,119.893z"/>
		</g>
		<g>
			<path style="stroke:#172E53;" d="M207.48,119.891c-0.242,0-0.482-0.092-0.666-0.276c-1.381-1.385-2.769-2.842-4.111-4.25
				c-5.342-5.606-10.866-11.404-17.613-14.476c-4.643-2.113-16.668-6.026-28.027,3.266c-0.403,0.329-0.995,0.27-1.324-0.133
				c-0.329-0.403-0.27-0.995,0.132-1.324c12.178-9.961,25.035-5.782,29.999-3.523c7.08,3.222,12.731,9.154,18.197,14.89
				c1.335,1.401,2.715,2.85,4.082,4.22c0.368,0.368,0.367,0.964-0.002,1.33C207.962,119.801,207.722,119.891,207.48,119.891z"/>
		</g>
	</g>
	<g>
		<g>
			<path style="stroke:#172E53;" d="M156.321,104.195c-0.28,0-0.554-0.123-0.74-0.359c-0.322-0.408-0.25-1,0.158-1.321l32.809-25.81
				c0.409-0.322,1.002-0.25,1.322,0.158c0.322,0.408,0.25,1-0.158,1.321l-32.809,25.81
				C156.73,104.129,156.525,104.195,156.321,104.195z"/>
		</g>
		<g>
			<path style="stroke:#172E53;" d="M151.145,99.929c-0.043,0-0.086-0.003-0.128-0.008c-0.515-0.071-0.875-0.544-0.806-1.059
				c1.215-8.922,6.516-15.298,16.202-19.493c6.953-3.011,15.13-3.008,22.33-3c0.52,0,0.982,0.423,0.98,0.942
				c0,0.52-0.252,0.944-0.901,0.944v0.062h-0.081c-7.04,0-14.987-0.044-21.582,2.812c-9.157,3.967-13.951,9.677-15.086,18.003
				C152.012,99.603,151.609,99.929,151.145,99.929z"/>
		</g>
	</g>
	<g>
		<g>
			<path style="stroke:#172E53;" d="M146.031,106.195c-0.199,0-0.398-0.062-0.569-0.191l-33.717-25.591
				c-0.413-0.314-0.495-0.905-0.181-1.319c0.314-0.414,0.903-0.495,1.319-0.181l33.717,25.591c0.413,0.314,0.495,0.905,0.181,1.319
				C146.595,106.067,146.315,106.195,146.031,106.195z"/>
		</g>
		<g>
			<path style="stroke:#172E53;" d="M151.201,101.965c-0.462,0-0.865-0.339-0.931-0.809c-1.15-8.139-6.223-13.981-15.508-17.862
				c-6.786-2.835-14.966-2.832-22.199-2.825l-0.021-0.941l0.021-0.941c7.412-0.003,15.79-0.012,22.925,2.97
				c9.951,4.159,15.397,10.483,16.646,19.335c0.072,0.515-0.286,0.99-0.801,1.064C151.29,101.962,151.246,101.965,151.201,101.965z"
				/>
		</g>
	</g>
	<g>
		<g>
			<path style="stroke:#172E53;" d="M191.117,159.254c-0.263,0-0.525-0.109-0.71-0.322l-34.916-40.05
				c-0.342-0.391-0.301-0.987,0.09-1.327c0.391-0.342,0.985-0.301,1.327,0.09l34.916,40.05c0.34,0.391,0.301,0.985-0.092,1.327
				C191.556,159.178,191.336,159.254,191.117,159.254z"/>
		</g>
		<g>
			<path style="stroke:#172E53;" d="M191.1,159.55c-0.449,0-0.844-0.314-0.921-0.773l-0.003-0.021
				c-1.628-9.55-3.472-20.375-7.998-28.908c-4.575-8.627-13.757-18.766-24.578-18.946c-0.52-0.008-0.934-0.437-0.926-0.957
				c0.008-0.52,0.413-0.941,0.955-0.926c11.642,0.192,21.396,10.864,26.211,19.945c4.667,8.8,6.539,19.784,8.19,29.474
				c0.087,0.511-0.255,1.01-0.768,1.097C191.209,159.545,191.155,159.55,191.1,159.55z"/>
		</g>
	</g>
	<g>
		<g>
			<path style="stroke:#172E53;" d="M113.35,160.586c-0.207,0-0.418-0.069-0.59-0.209c-0.405-0.327-0.467-0.919-0.14-1.324
				l33.546-41.47c0.326-0.405,0.919-0.467,1.324-0.14c0.405,0.327,0.467,0.919,0.14,1.324l-33.546,41.47
				C113.897,160.468,113.624,160.586,113.35,160.586z"/>
		</g>
		<g>
			<path style="stroke:#172E53;" d="M114.159,160.065l-0.934-0.11l-0.929-0.145c1.326-9.752,2.827-20.807,7.195-29.795
				c4.506-9.272,13.893-20.339,25.517-21.013c0.518-0.031,0.964,0.367,0.993,0.885c0.031,0.52-0.365,0.964-0.885,0.993
				c-10.81,0.627-19.649,11.142-23.934,19.955C116.945,139.555,115.464,150.451,114.159,160.065z M113.223,159.848h0.007H113.223z"
				/>
		</g>
	</g>
	<g>
		<path style="stroke:#172E53;" d="M158.636,136.296H144.24l2-18.911h10.397L158.636,136.296z M146.332,134.414h10.214
			l-1.602-15.147h-7.009L146.332,134.414z"/>
	</g>
	<g>
		<path style="stroke:#172E53;" d="M158.636,153.546H144.24l2-18.911h10.397L158.636,153.546z M146.332,151.663h10.214
			l-1.602-15.147h-7.009L146.332,151.663z"/>
	</g>
	<g>
		<path style="stroke:#172E53;" d="M158.636,170.794H144.24l2-18.911h10.397L158.636,170.794z M146.332,168.913h10.214
			l-1.602-15.148h-7.009L146.332,168.913z"/>
	</g>
	<g>
		<path style="stroke:#172E53;" d="M158.636,188.042H144.24l2-18.911h10.397L158.636,188.042z M146.332,186.161h10.214
			l-1.602-15.147h-7.009L146.332,186.161z"/>
	</g>
	<g>
		<path style="stroke:#172E53;" d="M158.636,205.292H144.24l2-18.911h10.397L158.636,205.292z M146.332,203.409h10.214
			l-1.602-15.147h-7.009L146.332,203.409z"/>
	</g>
	<g>
		<path style="stroke:#172E53;" d="M158.636,222.541H144.24l2-18.911h10.397L158.636,222.541z M146.332,220.658h10.214
			l-1.602-15.147h-7.009L146.332,220.658z"/>
	</g>
</g>
<rect x="277.289" y="10" style="fill:none;stroke:#FFFFFF;stroke-width:2;stroke-miterlimit:10;" width="14.711" height="280"/>
<rect x="10.289" y="10" style="fill:none;stroke:#FFFFFF;stroke-width:2;stroke-miterlimit:10;" width="14.711" height="280"/>
</svg>
