<?xml version="1.0" encoding="iso-8859-1"?>
<!-- Generator: Adobe Illustrator 21.1.0, SVG Export Plug-In . SVG Version: 6.00 Build 0)  -->
<svg version="1.1" id="Layer_1" xmlns="http://www.w3.org/2000/svg" xmlns:xlink="http://www.w3.org/1999/xlink" x="0px" y="0px"
	 viewBox="14 -22 222 222" style="enable-background:new 14 -22 222 222;" xml:space="preserve">
<g>
	<path style="fill:none;stroke:#172E53;stroke-width:2;stroke-miterlimit:10;" d="M154.383,175.641h-52.766
		c-10.254,0-18.566-8.312-18.566-18.566V23.951c0-10.254,8.312-18.566,18.566-18.566h52.766c10.254,0,18.566,8.312,18.566,18.566
		v133.124C172.949,167.329,164.637,175.641,154.383,175.641z"/>

		<rect x="89.72" y="28.114" style="fill:none;stroke:#172E53;stroke-width:2;stroke-miterlimit:10;" width="76.561" height="124.798"/>
	<path style="fill:none;stroke:#172E53;stroke-width:2;stroke-miterlimit:10;" d="M128,169.68L128,169.68
		c-2.882,0-5.219-2.337-5.219-5.219v-0.759c0-2.882,2.337-5.219,5.219-5.219h0c2.882,0,5.219,2.337,5.219,5.219v0.759
		C133.219,167.344,130.882,169.68,128,169.68z"/>
	<path style="fill:none;stroke:#172E53;stroke-width:2;stroke-miterlimit:10;" d="M136.485,20.454h-16.97
		c-0.867,0-1.57-0.754-1.57-1.684l0,0c0-0.93,0.703-1.684,1.57-1.684h16.97c0.867,0,1.57,0.754,1.57,1.684l0,0
		C138.055,19.7,137.352,20.454,136.485,20.454z"/>
</g>
<g stroke="#172E53">
	<g>
		<g>
			<path d="M93.324,72.899c-0.267,0-0.507-0.189-0.561-0.461c-0.061-0.31,0.14-0.611,0.45-0.672l31.077-6.143
				c0.312-0.059,0.611,0.14,0.672,0.45c0.061,0.31-0.14,0.611-0.45,0.672l-31.077,6.143C93.398,72.895,93.361,72.899,93.324,72.899z
				"/>
		</g>
		<g>
			<path d="M93.399,72.731c-0.145,0-0.29-0.055-0.401-0.164c-0.225-0.221-0.228-0.584-0.007-0.809
				c0.825-0.839,1.659-1.727,2.465-2.585c3.301-3.514,6.714-7.148,11.006-9.141c3.009-1.398,10.81-4.001,18.255,1.998
				c0.246,0.198,0.285,0.559,0.086,0.805c-0.197,0.246-0.558,0.285-0.805,0.086c-6.944-5.595-14.239-3.158-17.054-1.851
				c-4.091,1.9-7.427,5.452-10.654,8.887c-0.811,0.863-1.649,1.756-2.484,2.604C93.696,72.673,93.547,72.731,93.399,72.731z"/>
		</g>
	</g>
	<g>
		<g>
			<path d="M162.676,72.206c-0.035,0-0.07-0.003-0.105-0.01l-31.26-5.774c-0.311-0.057-0.516-0.356-0.459-0.667
				c0.057-0.311,0.357-0.517,0.666-0.459l31.26,5.774c0.311,0.057,0.516,0.356,0.459,0.667
				C163.187,72.013,162.946,72.206,162.676,72.206z"/>
		</g>
		<g>
			<path d="M162.671,72.205c-0.147,0-0.293-0.056-0.405-0.168c-0.84-0.842-1.684-1.728-2.5-2.584
				c-3.248-3.409-6.607-6.934-10.71-8.802c-2.823-1.285-10.135-3.664-17.042,1.986c-0.245,0.2-0.605,0.164-0.805-0.081
				c-0.2-0.245-0.164-0.605,0.08-0.805c7.405-6.057,15.223-3.516,18.241-2.142c4.305,1.959,7.741,5.566,11.065,9.054
				c0.812,0.852,1.651,1.733,2.482,2.566c0.224,0.224,0.223,0.586-0.001,0.809C162.964,72.15,162.818,72.205,162.671,72.205z"/>
		</g>
	</g>
	<g>
		<g>
			<path d="M131.563,62.661c-0.17,0-0.337-0.075-0.45-0.218c-0.196-0.248-0.152-0.608,0.096-0.803l19.95-15.694
				c0.249-0.196,0.609-0.152,0.804,0.096c0.196,0.248,0.152,0.608-0.096,0.803l-19.95,15.694
				C131.812,62.621,131.687,62.661,131.563,62.661z"/>
		</g>
		<g>
			<path d="M128.416,60.067c-0.026,0-0.052-0.002-0.078-0.005c-0.313-0.043-0.532-0.331-0.49-0.644
				c0.739-5.425,3.962-9.302,9.852-11.853c4.228-1.831,9.2-1.829,13.578-1.824c0.316,0,0.597,0.257,0.596,0.573
				c0,0.316-0.153,0.574-0.548,0.574v0.038h-0.049c-4.281,0-9.113-0.027-13.123,1.71c-5.568,2.412-8.483,5.884-9.173,10.947
				C128.943,59.869,128.698,60.067,128.416,60.067z"/>
		</g>
	</g>
	<g>
		<g>
			<path d="M125.306,63.877c-0.121,0-0.242-0.038-0.346-0.116L104.458,48.2c-0.251-0.191-0.301-0.55-0.11-0.802
				c0.191-0.252,0.549-0.301,0.802-0.11l20.502,15.561c0.251,0.191,0.301,0.55,0.11,0.802
				C125.649,63.799,125.479,63.877,125.306,63.877z"/>
		</g>
		<g>
			<path d="M128.45,61.305c-0.281,0-0.526-0.206-0.566-0.492c-0.699-4.949-3.784-8.501-9.43-10.861
				c-4.126-1.724-9.1-1.722-13.498-1.718l-0.013-0.572l0.013-0.572c4.507-0.002,9.601-0.007,13.94,1.806
				c6.051,2.529,9.362,6.374,10.122,11.757c0.044,0.313-0.174,0.602-0.487,0.647C128.504,61.303,128.477,61.305,128.45,61.305z"/>
		</g>
	</g>
	<g>
		<g>
			<path d="M152.721,96.14c-0.16,0-0.319-0.066-0.432-0.196l-21.231-24.353c-0.208-0.238-0.183-0.6,0.055-0.807
				c0.238-0.208,0.599-0.183,0.807,0.055l21.231,24.353c0.207,0.238,0.183,0.599-0.056,0.807
				C152.988,96.094,152.854,96.14,152.721,96.14z"/>
		</g>
		<g>
			<path d="M152.711,96.32c-0.273,0-0.513-0.191-0.56-0.47l-0.002-0.013c-0.99-5.807-2.111-12.389-4.863-17.578
				c-2.782-5.246-8.365-11.411-14.945-11.52c-0.316-0.005-0.568-0.266-0.563-0.582c0.005-0.316,0.251-0.572,0.581-0.563
				c7.079,0.117,13.01,6.606,15.938,12.128c2.838,5.351,3.976,12.03,4.98,17.922c0.053,0.311-0.155,0.614-0.467,0.667
				C152.777,96.317,152.744,96.32,152.711,96.32z"/>
		</g>
	</g>
	<g>
		<g>
			<path d="M105.434,96.95c-0.126,0-0.254-0.042-0.359-0.127c-0.246-0.199-0.284-0.559-0.085-0.805l20.398-25.216
				c0.198-0.246,0.559-0.284,0.805-0.085c0.246,0.199,0.284,0.559,0.085,0.805L105.88,96.738
				C105.767,96.878,105.601,96.95,105.434,96.95z"/>
		</g>
		<g>
			<path d="M105.926,96.633l-0.568-0.067l-0.565-0.088c0.806-5.93,1.719-12.652,4.375-18.117c2.74-5.638,8.448-12.367,15.516-12.777
				c0.315-0.019,0.586,0.223,0.604,0.538c0.019,0.316-0.222,0.586-0.538,0.604c-6.573,0.381-11.948,6.775-14.553,12.134
				C107.62,84.162,106.72,90.787,105.926,96.633z M105.357,96.501h0.004H105.357z"/>
		</g>
	</g>
	<g>
		<path d="M132.971,82.18h-8.754l1.216-11.499h6.322L132.971,82.18z M125.489,81.036h6.211l-0.974-9.21h-4.262L125.489,81.036z"/>
	</g>
	<g>
		<path d="M132.971,92.669h-8.754l1.216-11.499h6.322L132.971,92.669z M125.489,91.524h6.211l-0.974-9.21h-4.262L125.489,91.524z"/>
	</g>
	<g>
		<path d="M132.971,103.157h-8.754l1.216-11.499h6.322L132.971,103.157z M125.489,102.013h6.211l-0.974-9.211h-4.262
			L125.489,102.013z"/>
	</g>
	<g>
		<path d="M132.971,113.645h-8.754l1.216-11.499h6.322L132.971,113.645z M125.489,112.501h6.211l-0.974-9.21h-4.262L125.489,112.501
			z"/>
	</g>
	<g>
		<path d="M132.971,124.134h-8.754l1.216-11.499h6.322L132.971,124.134z M125.489,122.989h6.211l-0.974-9.21h-4.262L125.489,122.989
			z"/>
	</g>
	<g>
		<path d="M132.971,134.622h-8.754l1.216-11.499h6.322L132.971,134.622z M125.489,133.477h6.211l-0.974-9.21h-4.262L125.489,133.477
			z"/>
	</g>
</g>
</svg>
