<?xml version="1.0" encoding="utf-8"?>
<!-- Generator: Adobe Illustrator 21.1.0, SVG Export Plug-In . SVG Version: 6.00 Build 0)  -->
<svg version="1.1" id="Layer_1" xmlns="http://www.w3.org/2000/svg" xmlns:xlink="http://www.w3.org/1999/xlink" x="0px" y="0px"
	 viewBox="0 0 300 300" style="enable-background:new 0 0 300 300;" xml:space="preserve">
<style type="text/css">
	.st0{fill:none;stroke:#172E53;stroke-width:2;stroke-miterlimit:10;}
	.st1{fill:#5AD13D;stroke:#5AD13D;}
	.st2{fill:none;stroke:#FFFFFF;stroke-width:2;stroke-miterlimit:10;}
</style>
<g>
	<path class="st0" d="M193.9,290h-86.8c-16.9,0-30.5-13.7-30.5-30.5V40.5c0-16.9,13.7-30.5,30.5-30.5h86.8
		c16.9,0,30.5,13.7,30.5,30.5v218.9C224.4,276.3,210.7,290,193.9,290z"/>
	<rect x="87.5" y="47.4" class="st0" width="125.9" height="205.2"/>
	<path class="st0" d="M150.5,280.2L150.5,280.2c-4.7,0-8.6-3.8-8.6-8.6v-1.2c0-4.7,3.8-8.6,8.6-8.6l0,0c4.7,0,8.6,3.8,8.6,8.6v1.2
		C159,276.4,155.2,280.2,150.5,280.2z"/>
	<path class="st0" d="M164.4,34.8h-27.9c-1.4,0-2.6-1.2-2.6-2.8l0,0c0-1.5,1.2-2.8,2.6-2.8h27.9c1.4,0,2.6,1.2,2.6,2.8l0,0
		C167,33.5,165.8,34.8,164.4,34.8z"/>
</g>
<g>
	<g>
		<g>
			<path class="st1" d="M93.4,121c-0.4,0-0.8-0.3-0.9-0.8c-0.1-0.5,0.2-1,0.7-1.1l51.1-10.1c0.5-0.1,1,0.2,1.1,0.7
				c0.1,0.5-0.2,1-0.7,1.1L93.6,121C93.6,121,93.5,121,93.4,121z"/>
		</g>
		<g>
			<path class="st1" d="M93.6,120.8c-0.2,0-0.5-0.1-0.7-0.3c-0.4-0.4-0.4-1,0-1.3c1.4-1.4,2.7-2.8,4.1-4.3c5.4-5.8,11-11.8,18.1-15
				c4.9-2.3,17.8-6.6,30,3.3c0.4,0.3,0.5,0.9,0.1,1.3c-0.3,0.4-0.9,0.5-1.3,0.1c-11.4-9.2-23.4-5.2-28-3c-6.7,3.1-12.2,9-17.5,14.6
				c-1.3,1.4-2.7,2.9-4.1,4.3C94,120.7,93.8,120.8,93.6,120.8z"/>
		</g>
	</g>
	<g>
		<g>
			<path class="st1" d="M207.5,119.9c-0.1,0-0.1,0-0.2,0l-51.4-9.5c-0.5-0.1-0.8-0.6-0.8-1.1s0.6-0.8,1.1-0.8l51.4,9.5
				c0.5,0.1,0.8,0.6,0.8,1.1C208.3,119.6,207.9,119.9,207.5,119.9z"/>
		</g>
		<g>
			<path class="st1" d="M207.5,119.9c-0.2,0-0.5-0.1-0.7-0.3c-1.4-1.4-2.8-2.8-4.1-4.2c-5.3-5.6-10.9-11.4-17.6-14.5
				c-4.6-2.1-16.7-6-28,3.3c-0.4,0.3-1,0.3-1.3-0.1c-0.3-0.4-0.3-1,0.1-1.3c12.2-10,25-5.8,30-3.5c7.1,3.2,12.7,9.2,18.2,14.9
				c1.3,1.4,2.7,2.8,4.1,4.2c0.4,0.4,0.4,1,0,1.3C208,119.8,207.7,119.9,207.5,119.9z"/>
		</g>
	</g>
	<g>
		<g>
			<path class="st1" d="M156.3,104.2c-0.3,0-0.6-0.1-0.7-0.4c-0.3-0.4-0.2-1,0.2-1.3l32.8-25.8c0.4-0.3,1-0.2,1.3,0.2
				c0.3,0.4,0.2,1-0.2,1.3L156.9,104C156.7,104.1,156.5,104.2,156.3,104.2z"/>
		</g>
		<g>
			<path class="st1" d="M151.1,99.9c0,0-0.1,0-0.1,0c-0.5-0.1-0.9-0.5-0.8-1.1c1.2-8.9,6.5-15.3,16.2-19.5c7-3,15.1-3,22.3-3
				c0.5,0,1,0.4,1,0.9c0,0.5-0.3,0.9-0.9,0.9v0.1h-0.1c-7,0-15,0-21.6,2.8c-9.2,4-14,9.7-15.1,18C152,99.6,151.6,99.9,151.1,99.9z"
				/>
		</g>
	</g>
	<g>
		<g>
			<path class="st1" d="M146,106.2c-0.2,0-0.4-0.1-0.6-0.2l-33.7-25.6c-0.4-0.3-0.5-0.9-0.2-1.3s0.9-0.5,1.3-0.2l33.7,25.6
				c0.4,0.3,0.5,0.9,0.2,1.3C146.6,106.1,146.3,106.2,146,106.2z"/>
		</g>
		<g>
			<path class="st1" d="M151.2,102c-0.5,0-0.9-0.3-0.9-0.8c-1.1-8.1-6.2-14-15.5-17.9c-6.8-2.8-15-2.8-22.2-2.8l0-0.9l0-0.9
				c7.4,0,15.8,0,22.9,3c10,4.2,15.4,10.5,16.6,19.3c0.1,0.5-0.3,1-0.8,1.1C151.3,102,151.2,102,151.2,102z"/>
		</g>
	</g>
	<g>
		<g>
			<path class="st1" d="M191.1,159.3c-0.3,0-0.5-0.1-0.7-0.3l-34.9-40.1c-0.3-0.4-0.3-1,0.1-1.3c0.4-0.3,1-0.3,1.3,0.1l34.9,40
				c0.3,0.4,0.3,1-0.1,1.3C191.6,159.2,191.3,159.3,191.1,159.3z"/>
		</g>
		<g>
			<path class="st1" d="M191.1,159.6c-0.4,0-0.8-0.3-0.9-0.8l0,0c-1.6-9.6-3.5-20.4-8-28.9c-4.6-8.6-13.8-18.8-24.6-18.9
				c-0.5,0-0.9-0.4-0.9-1c0-0.5,0.4-0.9,1-0.9c11.6,0.2,21.4,10.9,26.2,19.9c4.7,8.8,6.5,19.8,8.2,29.5c0.1,0.5-0.3,1-0.8,1.1
				C191.2,159.5,191.2,159.6,191.1,159.6z"/>
		</g>
	</g>
	<g>
		<g>
			<path class="st1" d="M113.3,160.6c-0.2,0-0.4-0.1-0.6-0.2c-0.4-0.3-0.5-0.9-0.1-1.3l33.5-41.5c0.3-0.4,0.9-0.5,1.3-0.1
				s0.5,0.9,0.1,1.3l-33.5,41.5C113.9,160.5,113.6,160.6,113.3,160.6z"/>
		</g>
		<g>
			<path class="st1" d="M114.2,160.1l-0.9-0.1l-0.9-0.1c1.3-9.8,2.8-20.8,7.2-29.8c4.5-9.3,13.9-20.3,25.5-21c0.5,0,1,0.4,1,0.9
				c0,0.5-0.4,1-0.9,1c-10.8,0.6-19.6,11.1-23.9,20C116.9,139.6,115.5,150.5,114.2,160.1z M113.2,159.8L113.2,159.8L113.2,159.8z"/>
		</g>
	</g>
	<g>
		<path class="st1" d="M158.6,136.3h-14.4l2-18.9h10.4L158.6,136.3z M146.3,134.4h10.2l-1.6-15.1h-7L146.3,134.4z"/>
	</g>
	<g>
		<path class="st1" d="M158.6,153.5h-14.4l2-18.9h10.4L158.6,153.5z M146.3,151.7h10.2l-1.6-15.1h-7L146.3,151.7z"/>
	</g>
	<g>
		<path class="st1" d="M158.6,170.8h-14.4l2-18.9h10.4L158.6,170.8z M146.3,168.9h10.2l-1.6-15.1h-7L146.3,168.9z"/>
	</g>
	<g>
		<path class="st1" d="M158.6,188h-14.4l2-18.9h10.4L158.6,188z M146.3,186.2h10.2l-1.6-15.1h-7L146.3,186.2z"/>
	</g>
	<g>
		<path class="st1" d="M158.6,205.3h-14.4l2-18.9h10.4L158.6,205.3z M146.3,203.4h10.2l-1.6-15.1h-7L146.3,203.4z"/>
	</g>
	<g>
		<path class="st1" d="M158.6,222.5h-14.4l2-18.9h10.4L158.6,222.5z M146.3,220.7h10.2l-1.6-15.1h-7L146.3,220.7z"/>
	</g>
</g>
<rect x="277.3" y="10" class="st2" width="14.7" height="280"/>
<rect x="10.3" y="10" class="st2" width="14.7" height="280"/>
</svg>
